<?xml version="1.0" encoding="utf-8"?>
<!-- Generator: Adobe Illustrator 24.0.2, SVG Export Plug-In . SVG Version: 6.00 Build 0)  -->
<svg version="1.1" id="Layer_1" xmlns="http://www.w3.org/2000/svg" xmlns:xlink="http://www.w3.org/1999/xlink" x="0px" y="0px"
	 viewBox="0 0 652 262.2" style="enable-background:new 0 0 652 262.2;" xml:space="preserve">
<style type="text/css">
	.st0{fill:#FFFFFF;}
</style>
<g id="XMLID_2_">
	<g id="XMLID_3_">
		<g id="XMLID_334_">
			<path id="XMLID_335_" d="M244.6,0h13.7v25.9L282.7,0h17.1l-24.4,24.7l26.8,37.8H285l-18.8-28.1l-7.9,8v20.1h-13.7V0z"/>
			<path id="XMLID_337_" d="M324.2,16c14.3,0,23.4,9.4,23.4,23.9c0,14.3-9.2,23.8-23.4,23.8c-14.2,0-23.4-9.4-23.4-23.8
				C300.8,25.5,310,16,324.2,16z M324.2,54.3c8.5,0,11-7.3,11-14.4c0-7.3-2.5-14.5-11-14.5c-8.4,0-10.9,7.3-10.9,14.5
				C313.2,47.1,315.8,54.3,324.2,54.3z"/>
			<path id="XMLID_340_" d="M354.1,0h12.4v62.5h-12.4V0z"/>
			<path id="XMLID_342_" d="M407.2,56.7H407c-2.9,4.9-8,7-13.7,7c-13.6,0-20.3-11.7-20.3-24.2c0-12.2,6.7-23.4,20-23.4
				c5.3,0,10.6,2.3,13.4,6.7h0.2V0H419v62.5h-11.8V56.7z M396.3,25.4c-8.1,0-10.9,7-10.9,14.4c0,7.1,3.2,14.5,10.9,14.5
				c8.2,0,10.7-7.2,10.7-14.6C407,32.4,404.4,25.4,396.3,25.4z"/>
			<path id="XMLID_345_" d="M439.7,10.2h-12.4V0h12.4V10.2z M427.3,17.2h12.4v45.2h-12.4V17.2z"/>
			<path id="XMLID_348_" d="M448,17.2h11.8v6.3h0.3c3.1-5.1,8.6-7.5,13.8-7.5c13.2,0,16.5,7.4,16.5,18.6v27.8H478V36.9
				c0-7.4-2.2-11.1-8-11.1c-6.7,0-9.6,3.8-9.6,12.9v23.7H448V17.2z"/>
			<path id="XMLID_350_" d="M541.5,59.6c0,7.4-2.6,20-23.4,20c-8.9,0-19.3-4.2-19.9-14.5h12.3c1.1,4.6,4.9,6.2,9.3,6.2
				c6.9,0,10.1-4.7,10-11.2v-5.9h-0.2c-2.7,4.7-8.1,7-13.6,7c-13.6,0-19.3-10.3-19.3-22.7c0-11.7,6.7-22.4,19.4-22.4
				c6,0,10.5,2,13.5,7.3h0.2v-6h11.8V59.6z M529.6,39.3c0-7.3-2.5-13.9-10.6-13.9c-7,0-10.1,6.1-10.1,12.9c0,6.5,2.5,13.6,10.1,13.6
				C526.1,51.8,529.6,45.8,529.6,39.3z"/>
		</g>
		<g id="XMLID_317_">
			<path id="XMLID_318_" d="M244.4,78.5h13.7v25.9l24.4-25.9h17.1l-24.4,24.7l26.8,37.8h-17.2L266,112.9l-7.9,8V141h-13.7V78.5z"/>
			<path id="XMLID_320_" d="M324,94.5c14.3,0,23.4,9.4,23.4,23.9c0,14.3-9.2,23.8-23.4,23.8c-14.2,0-23.4-9.4-23.4-23.8
				C300.7,103.9,309.9,94.5,324,94.5z M324,132.8c8.5,0,11-7.3,11-14.4c0-7.3-2.5-14.5-11-14.5c-8.4,0-10.9,7.3-10.9,14.5
				C313.1,125.6,315.6,132.8,324,132.8z"/>
			<path id="XMLID_323_" d="M354,95.7h11.7v6.1h0.2c3.2-4.6,8-7.3,13.8-7.3c5.7,0,10.8,2.1,13.2,7.5c2.6-3.9,7.3-7.5,13.6-7.5
				c9.6,0,16.5,4.5,16.5,16.2V141h-12.4v-25.6c0-6-0.5-11-7.6-11c-7,0-8.3,5.8-8.3,11.5V141h-12.4v-25.4c0-5.3,0.3-11.3-7.5-11.3
				c-2.5,0-8.4,1.6-8.4,10.4V141H354V95.7z"/>
			<path id="XMLID_325_" d="M431.6,95.7h11.7v6.1h0.2c3.2-4.6,8-7.3,13.8-7.3c5.7,0,10.8,2.1,13.2,7.5c2.6-3.9,7.3-7.5,13.6-7.5
				c9.6,0,16.5,4.5,16.5,16.2V141h-12.4v-25.6c0-6-0.5-11-7.6-11c-7,0-8.3,5.8-8.3,11.5V141h-12.4v-25.4c0-5.3,0.3-11.3-7.5-11.3
				c-2.5,0-8.4,1.6-8.4,10.4V141h-12.4V95.7z"/>
			<path id="XMLID_327_" d="M550.9,141h-11.8v-6.3h-0.3c-3.1,5.1-8.6,7.5-13.8,7.5c-13.2,0-16.5-7.4-16.5-18.6V95.7h12.4v25.5
				c0,7.4,2.2,11.1,8,11.1c6.7,0,9.6-3.8,9.6-12.9V95.7h12.4V141z"/>
			<path id="XMLID_329_" d="M559.1,95.7h11.8v6.3h0.3c3.1-5.1,8.6-7.5,13.8-7.5c13.2,0,16.5,7.4,16.5,18.6V141h-12.4v-25.5
				c0-7.4-2.2-11.1-8-11.1c-6.7,0-9.6,3.8-9.6,12.9V141h-12.4V95.7z"/>
			<path id="XMLID_331_" d="M619.3,121.4c0.3,7.9,4.2,11.5,11.1,11.5c5,0,9-3.1,9.8-5.9h10.9c-3.5,10.7-10.9,15.2-21.2,15.2
				c-14.3,0-23.1-9.8-23.1-23.8c0-13.6,9.4-23.9,23.1-23.9c15.4,0,22.8,12.9,22,26.9H619.3z M639.5,113.5c-1.1-6.3-3.8-9.6-9.9-9.6
				c-7.9,0-10.1,6.1-10.3,9.6H639.5z"/>
		</g>
	</g>
	<g id="XMLID_32_">
		<path id="XMLID_18_" d="M204.1,4.8c0-2.7-2.2-4.8-4.9-4.8C199.2,0,5,0,4.9,0C2.2,0,0,2.2,0,4.8v0c0,0,0,154.9,0,155.4
			c0,56.4,45.7,102,102,102c56.3,0,102-45.6,102.1-101.8V4.8z"/>
	</g>
	<g id="XMLID_27_">
		<path id="XMLID_31_" class="st0" d="M15.9,189.4c2.8,3.1,10.8,6.1,16,7.9c13.2,4.7,25.2,5.6,36.8,4.7c14.9-1.1,28.2-6.7,40.1-11.5
			c26.7-10.7,37.8-13.3,59-9.5c8.6,1.5,18.8,4.7,21.8,5.9c-1.2,4-5.2,12.6-5.4,12.5c-3.7-1.3-20.8-7.3-33.8-7.3
			c-12.2,0-21.6,3.4-26.1,4.9c-4.5,1.3-18.9,7.1-28,9.7c-5.9,1.6-23.5,8.2-46.8,1.7c-9.9-2.8-25.2-8.1-33.5-18.8
			C15.8,189.3,15.5,189,15.9,189.4z"/>
		<path id="XMLID_30_" class="st0" d="M44.5,216.1c10.5,3.6,21.2,6.4,33,5.6c8.4-0.6,17.7-2.4,26.2-5.2c3.8-1.3,21.7-7.9,24.4-8.7
			c11.9-3.6,22.9-3,27.2-2.5c9.9,1.2,21.4,6.1,21.6,6.2c-3.7,4.9-5.8,7.4-9.9,11.4c-5.1-2.4-12.1-6.8-29.9-4.4
			c-6.3,0.8-14.2,3.2-21.5,5.7c-8.9,3-19.5,6.8-31.6,7c-34.1,0.6-53.4-15.9-59.5-24.8c-0.3-0.4-0.5-0.6,0.1-0.1
			C28.1,208.8,33,212.1,44.5,216.1z"/>
		<path id="XMLID_29_" class="st0" d="M67.4,168.6c28.6-2,46.6,2.2,55.9,5c0,0-5.7,2.4-7.1,3C99,183.6,85.3,190,70.8,191.6
			c-15.7,1.7-26.5,0.3-45.4-8C26.5,182,35.7,170.9,67.4,168.6z"/>
		<path id="XMLID_28_" class="st0" d="M51.7,233.9c-0.4-0.3-1-0.8,0.1-0.3c5.9,2.7,10.3,5.8,24.6,7.1c17.1,1.6,31.7-2.4,36.5-3.6
			c2.6-0.7,15.9-5.8,22.7-6.9c5.1-0.9,9.7-1.5,14.8,0.2c1.5,0.5,3.3,1.8,4.5,2.5c-9.1,6.2-21.1,12.7-40.1,15.4
			c-12.4,1.7-27.4,0.8-42.3-4.1C65.9,242,57.3,237.7,51.7,233.9z"/>
	</g>
	<g id="XMLID_14_">
		<path id="XMLID_26_" class="st0" d="M44.9,105c0.2,0,11.2-2,11.3-2.1c4.7,4.7,18.1,1.2,23,0.1c-0.4,0.1-4.6,2.5-15.1,5.9
			C55.1,111.8,48.2,109.6,44.9,105z"/>
		<path id="XMLID_25_" class="st0" d="M34.5,90.5c3.2-0.1,9.8-0.7,12.1-0.9c0,0,1.1,5.2,22.4,1.6c0,0-8,3.3-16.8,5.7
			C38.3,100.6,34.5,90.5,34.5,90.5z"/>
		<path id="XMLID_24_" class="st0" d="M76.1,70c8.3-11.2,29.7-17.2,31.1-17.9C105,53.3,88.4,62,84.7,77.4C82.2,88.6,90.9,89.5,93,90
			C72.5,94.7,69.6,78.4,76.1,70z"/>
		<path id="XMLID_23_" class="st0" d="M23.4,74.1c0.4,0,9.3,0.3,13.4,0.2c0.4,0.8,1.8,2.4,3.6,3c4.6,1.3,14.1,1.9,24.3,1.4
			c0,0-19,4.3-21.9,4.6C29.7,85.5,25.3,78.8,23.4,74.1z"/>
		<path id="XMLID_22_" class="st0" d="M28.8,67.2c-5.2-1-10.8-5.1-13.6-12.1c5.6,1.3,15.6,2.4,17.1,2.5c1.4,1.6,3.5,2.6,7.2,3.5
			c4.4,0.6,24.2,3.5,28,6.7C54.6,64.1,40.2,69,28.8,67.2z"/>
		<path id="XMLID_21_" class="st0" d="M46.1,51.5c-8.9-0.4-14.4-0.9-20.8-3c-4.1-1.3-11.8-5.3-14.3-14.8c1.4,0.5,16.3,4.1,18.9,4.7
			c1.9,2.2,3.3,4,10.5,5.7c10.2,2.5,26,4.8,34.6,11.8C63.4,52.3,52.2,51.8,46.1,51.5z"/>
		<path id="XMLID_20_" class="st0" d="M108.9,51.4c4.5-3.8,3.1-6.9,0.6-9c-3.7-3-21.3-16.3-54.2-25.2c7.7,0.6,51,5.4,62.7,20.8
			c1.3,1.9,1.5,3.4,1.5,5.3C119.2,45.8,117.4,49.5,108.9,51.4z"/>
		<path id="XMLID_19_" class="st0" d="M48.2,34.9c-21.6-2.5-34.9-9.5-39-23.3c6,2.1,21,5.2,21.3,5.3c5.3,5.3,13.6,7.4,20.8,9.8
			C58.1,29,74.6,33,87.9,45.9C84.3,44,77,38.4,48.2,34.9z"/>
		<path id="XMLID_15_" class="st0" d="M133.5,86c-1.7,0-3.4,0-3.6,0l0,0c-2.8-4.4-8.4-4.2-13.1-3.9c-4.8,0.3-9,2.6-9,2.6
			c-3.7,1.6-6.3,3.7-10.3,4.9c-0.8,0.3-1.2,0.3-1.8,0.4c0,0,2.7,0,3.2,1.8c1.5,4.9-15.2,9.9-15.8,10.1c4-0.6,11.1-0.7,14.8-0.2
			c-5.6,2.4-13,4.3-19.5,8.8c-5.6,3.8-9.1,8.1-17.6,8.1c-3.8,0-7.7-2.8-7.7-2.8c-2.2,1.4-13.5,3.3-18.2,3.8
			c-14.4,2-25.7,0.8-25.7,0.8c2.9,2.9,2,2.3,4.2,6.1c2.2,3.9,7.1,2.8,11.7,1.6c4.6-1.2,15.2-3.9,19.4-4.2c4.2-0.3,7,1.2,7.7,1.7
			c-4.3,0.3-9.8,2.4-17.7,5.3c-8.1,3-19.9,5.6-19.9,5.6c2,0.7,5.5,3.5,8.3,5c5.5,2.9,10.8-1.7,19.6-7.2c7.5-4.7,14.9-5.2,16.8-5.2
			c-0.5,0.3-2,1.3-3,2l-27,19.7c3.6-0.4,5.9,1.1,10,1.5c7.6,0.7,15-12.4,19.2-16.6c3-3,9.4-2.4,10.6-2c1.3,0.4,2.3,2.1,2.3,7.4
			c0,0,3.1-0.3,4.4,0.8c2.5,1.9,2.8,3.9,2.3,6c-0.4,1.4-4.1,1.6-4.1,4.2c-3.3,2.3-4.4,5.3-3.6,7.9c0.6,1.9,2.8,3.3,4.7,3.4
			c-3-3.3-0.1-5.6,0.9-6.3c0.6,0.8,3.2,1.9,4.1,0.2c1-1.8,2.9-2.5,4.9-2.5c1.5,0,1.8,1.1,2.7,1.7c1.1,0.7,3.3-0.5,3.7,1.3
			c0.6,2.7-0.1,4.6-2.1,6.8c6.7-1.6,7.2-5.7,6.9-8.4c2.1,0.9,3.2,0.5,3.9-0.4c4.4,2.2,2.1,6.7,0.6,7.9c4.7-1.3,6.3-3.9,6.2-6.4
			c-0.1-2.9-2.5-5.7-4.5-6c-0.1-0.6-0.2-1.2-0.7-1.7c-1.3-1.3-5.3-0.9-7.8-1.7c-5-1.6-5.9-5.8-5.9-10.6c0-3.3,0.3-9.9,1.9-11.9
			c3.9-4.8,14.5-10.1,21.5-16.6c0.2,0.3,1.4,2,1.6,2.4c1.4-2.9,1.7-3.6,5-8.2c3.9-4.6,10.1-8.5,13.9-8.5c2.8,0,3.8,0,3.8,0
			c2.1,0,2.9,0.6,3.3,1.1c0.7,0.9,0.4,1.7,0.4,3.1c0,0,2.9-2.3,2.9-7C142.6,88.5,141.1,86,133.5,86z M125.5,88.4
			c-0.1,1.6-1.5,2.9-3.1,2.9c-1.7,0-3.2-1.4-3.2-3.1c0-0.7,0.3-1.4,0.7-1.9c0.1-0.1,0.1-0.2,0.2-0.3c0,0,9.8,0,9.8,0
			C126.7,88,125.5,88.4,125.5,88.4z"/>
	</g>
	<path id="XMLID_13_" class="st0" d="M163.1,169.1c0-1.5,0.4-29.6,0.5-31.4c0-5.8,1.1-12.8,3.4-19.5c4.1-11.7,11.9-19.9,15.2-23.9
		c6.6-8,7.3-17.6,7.3-17.6s3.8,14.7-1.2,25.6c-2.5,5.4-6.6,11.1-9,15.1c-7.8,13-10.4,19.1-10.4,34.3c0,4.4,0,16.6,0,18.4
		C168.1,169.9,164.1,169.2,163.1,169.1z"/>
	<path id="XMLID_12_" class="st0" d="M155,168.5c0-2.8,0.8-17.1-2.1-22.6c-1-1.9-5.3-9.9-15.6-8.2c-1.9,0.3-9.2,2.5-13.6,2.5
		c-8.2,0-15.5-4.7-15.5-4.7s8.6,0.6,14.9-4.9c11.7-11.3,28.9-9,34.2,10.3c2.3,8.8,1.7,22.1,1.7,28C158.5,168.9,156,168.6,155,168.5z
		"/>
	<path id="XMLID_11_" class="st0" d="M158.5,110.9c0-13.4,1.8-20.6,2.4-23.4c0.7-3.3,4.5-17.6,1.2-23.5c0,0,2.9-5.8,3.1-6.2
		c0,0,5.7,7.9,2.8,23c-0.2,1.3-2.9,12.2-3.7,19.7c-0.4,4.4-0.4,11-0.4,14.2c-0.7,1.5-1.5,3.6-2.1,5.8c-1.5,5.3-2.4,11.2-2.4,11.2
		S158.5,127.6,158.5,110.9z"/>
	<path id="XMLID_10_" class="st0" d="M169.5,56.1c3-5.5,5.3-10.3,8.4-12.3c6.1-3.9,12.4-0.5,13.3,5.5c1.9,10.7,4.7,12.6,4.8,12.6
		c-4.4,0-6-1.7-8.9-5c-4.3-4-11.6-3.2-15.1,5C171.6,60.5,170.4,57.6,169.5,56.1z"/>
	<path id="XMLID_8_" class="st0" d="M160.8,56.2c-3.1-5.6-5.3-10.4-8.5-12.4c-6.1-3.9-12.4-0.5-13.3,5.5
		c-1.9,10.7-4.7,12.6-4.8,12.6c4.4,0,6-1.7,8.9-5c4.3-4,11.6-3.5,15.1,4.6C158.9,60.3,160.1,57.8,160.8,56.2z"/>
	<path id="XMLID_7_" class="st0" d="M156.8,36.3c0-11.7,11.2-21.4,11.2-21.4c-4,10.9,3.9,17.2,3.9,23.6c0,7.9-6.7,16.5-6.7,16.5
		C161.3,48.1,156.8,42.3,156.8,36.3z"/>
</g>
</svg>
